<svg xmlns="http://www.w3.org/2000/svg" viewBox="0 0 32 32">
  <defs>
    <linearGradient id="g" x1="0" y1="0" x2="1" y2="0">
      <stop offset="0" stop-color="#6a0f3e"/>
      <stop offset="1" stop-color="#e55151"/>
    </linearGradient>
  </defs>
  <rect width="32" height="32" rx="7" fill="url(#g)"/>
  <g fill="none" stroke="#f6dfe3" stroke-width="1.7" stroke-linecap="round" stroke-linejoin="round">
    <path d="M11.3 9.2H9.2a2.4 2.4 0 0 1 0-4.8h11.4a1.9 1.9 0 0 1 1.8 2.4l-3 11.5"/>
    <path d="M11.3 4.6v4.6c0 3.8-4.7 7.3-4.7 13.7a4.7 4.7 0 0 0 4.7 4.7h9.6a4.65 4.65 0 0 0 0-9.3h-9.6a4.65 4.65 0 0 1 0 9.3"/>
    <path d="M14.5 18.3a4.65 4.65 0 0 1 0 9.3M17.7 18.3a4.65 4.65 0 0 1 0 9.3"/>
  </g>
</svg>
